<svg width="28" height="28" viewBox="0 0 28 28" fill="none" xmlns="http://www.w3.org/2000/svg">
<circle cx="14" cy="14" r="14" fill="#1C234D"/>
<path d="M11.1197 13.0425C10.8838 12.7995 10.5679 12.6651 10.2399 12.6681C9.91195 12.6711 9.59825 12.8114 9.36634 13.0588C9.13444 13.3061 9.0029 13.6407 9.00005 13.9905C8.9972 14.3403 9.12327 14.6773 9.35111 14.9289L11.8526 17.5969C12.0872 17.847 12.4053 17.9875 12.7369 17.9875C13.0686 17.9875 13.3867 17.847 13.6212 17.5969L18.6243 12.2608C18.8522 12.0092 18.9782 11.6722 18.9754 11.3224C18.9725 10.9727 18.841 10.6381 18.6091 10.3907C18.3772 10.1434 18.0635 10.0031 17.7355 10.0001C17.4076 9.99701 17.0916 10.1315 16.8557 10.3745L12.7369 14.7674L11.1197 13.0425Z" fill="white"/>
</svg>
