<svg width="20" height="20" viewBox="0 0 20 20" fill="none" xmlns="http://www.w3.org/2000/svg">
<path d="M1 19L7 13L1 19ZM5 8C5 8.91925 5.18106 9.82951 5.53284 10.6788C5.88463 11.5281 6.40024 12.2997 7.05025 12.9497C7.70026 13.5998 8.47194 14.1154 9.32122 14.4672C10.1705 14.8189 11.0807 15 12 15C12.9193 15 13.8295 14.8189 14.6788 14.4672C15.5281 14.1154 16.2997 13.5998 16.9497 12.9497C17.5998 12.2997 18.1154 11.5281 18.4672 10.6788C18.8189 9.82951 19 8.91925 19 8C19 6.14348 18.2625 4.36301 16.9497 3.05025C15.637 1.7375 13.8565 1 12 1C10.1435 1 8.36301 1.7375 7.05025 3.05025C5.7375 4.36301 5 6.14348 5 8Z" stroke="#374151" stroke-width="2" stroke-linecap="round" stroke-linejoin="round"/>
</svg>
